<svg width="98" height="49" viewBox="0 0 98 49" fill="none" xmlns="http://www.w3.org/2000/svg">
<path d="M15.4248 48.875C13.0632 48.875 10.8423 48.3875 8.76234 47.4125C6.70401 46.4375 4.92734 45.0833 3.43234 43.35C1.93734 41.6167 0.864844 39.6017 0.214844 37.305L8.72984 35.03C9.01151 36.135 9.50984 37.0883 10.2248 37.89C10.9615 38.6917 11.8065 39.32 12.7598 39.775C13.7348 40.2083 14.7315 40.425 15.7498 40.425C17.0932 40.425 18.3173 40.1 19.4223 39.45C20.549 38.8 21.4373 37.9225 22.0873 36.8175C22.759 35.7125 23.0948 34.4883 23.0948 33.145C23.0948 31.8017 22.759 30.5775 22.0873 29.4725C21.4373 28.3675 20.549 27.49 19.4223 26.84C18.3173 26.19 17.0932 25.865 15.7498 25.865C14.1032 25.865 12.7598 26.1467 11.7198 26.71C10.6798 27.2517 9.89984 27.7717 9.37984 28.27L1.90484 25.995L3.33484 1.1H28.8798V9.355H8.20984L11.3298 6.43L10.3548 22.485L8.85984 20.665C10.0298 19.7117 11.3623 19.0183 12.8573 18.585C14.3523 18.1517 15.7498 17.935 17.0498 17.935C19.9965 17.935 22.5857 18.5958 24.8173 19.9175C27.0707 21.2175 28.8257 23.0158 30.0823 25.3125C31.3607 27.5875 31.9998 30.1983 31.9998 33.145C31.9998 36.0917 31.2307 38.7567 29.6923 41.14C28.154 43.5017 26.1282 45.3867 23.6148 46.795C21.1015 48.1817 18.3715 48.875 15.4248 48.875Z" fill="white"/>
<path d="M53.8962 48.875C50.4295 48.875 47.3962 48.1492 44.7962 46.6975C42.1962 45.2458 40.1704 43.22 38.7187 40.62C37.267 38.02 36.5412 34.9867 36.5412 31.52V17.48C36.5412 14.0133 37.267 10.98 38.7187 8.38C40.1704 5.78 42.1962 3.75416 44.7962 2.3025C47.3962 0.850832 50.4295 0.125 53.8962 0.125C57.3629 0.125 60.3962 0.850832 62.9962 2.3025C65.5962 3.75416 67.622 5.78 69.0737 8.38C70.5254 10.98 71.2512 14.0133 71.2512 17.48V31.52C71.2512 34.9867 70.5254 38.02 69.0737 40.62C67.622 43.22 65.5962 45.2458 62.9962 46.6975C60.3962 48.1492 57.3629 48.875 53.8962 48.875ZM53.8962 40.49C55.4562 40.49 56.8645 40.1217 58.1212 39.385C59.3779 38.6483 60.3745 37.6517 61.1112 36.395C61.8479 35.1383 62.2162 33.73 62.2162 32.17V16.765C62.2162 15.205 61.8479 13.7967 61.1112 12.54C60.3745 11.2833 59.3779 10.2867 58.1212 9.55C56.8645 8.81333 55.4562 8.445 53.8962 8.445C52.3362 8.445 50.9279 8.81333 49.6712 9.55C48.4145 10.2867 47.4179 11.2833 46.6812 12.54C45.9445 13.7967 45.5762 15.205 45.5762 16.765V32.17C45.5762 33.73 45.9445 35.1383 46.6812 36.395C47.4179 37.6517 48.4145 38.6483 49.6712 39.385C50.9279 40.1217 52.3362 40.49 53.8962 40.49Z" fill="white"/>
<path d="M76.74 47.9L75.24 46.4L95.385 26.3L96.885 27.785L76.74 47.9ZM92.385 48.35C91.395 48.35 90.49 48.11 89.67 47.63C88.86 47.14 88.21 46.49 87.72 45.68C87.23 44.86 86.985 43.95 86.985 42.95C86.985 41.97 87.235 41.07 87.735 40.25C88.235 39.43 88.895 38.775 89.715 38.285C90.535 37.795 91.425 37.55 92.385 37.55C93.375 37.55 94.28 37.795 95.1 38.285C95.92 38.765 96.57 39.415 97.05 40.235C97.54 41.045 97.785 41.95 97.785 42.95C97.785 43.95 97.54 44.86 97.05 45.68C96.57 46.49 95.92 47.14 95.1 47.63C94.28 48.11 93.375 48.35 92.385 48.35ZM92.385 46.355C92.995 46.355 93.56 46.2 94.08 45.89C94.6 45.58 95.015 45.17 95.325 44.66C95.635 44.14 95.79 43.57 95.79 42.95C95.79 42.33 95.635 41.765 95.325 41.255C95.015 40.735 94.6 40.32 94.08 40.01C93.56 39.7 92.995 39.545 92.385 39.545C91.765 39.545 91.195 39.7 90.675 40.01C90.165 40.32 89.75 40.735 89.43 41.255C89.12 41.765 88.965 42.33 88.965 42.95C88.965 43.57 89.12 44.14 89.43 44.66C89.75 45.17 90.165 45.58 90.675 45.89C91.195 46.2 91.765 46.355 92.385 46.355ZM79.74 36.65C78.75 36.65 77.845 36.41 77.025 35.93C76.205 35.44 75.55 34.79 75.06 33.98C74.58 33.16 74.34 32.25 74.34 31.25C74.34 30.27 74.59 29.37 75.09 28.55C75.59 27.73 76.25 27.075 77.07 26.585C77.89 26.095 78.78 25.85 79.74 25.85C80.73 25.85 81.63 26.095 82.44 26.585C83.26 27.065 83.915 27.715 84.405 28.535C84.895 29.345 85.14 30.25 85.14 31.25C85.14 32.25 84.895 33.16 84.405 33.98C83.915 34.79 83.26 35.44 82.44 35.93C81.63 36.41 80.73 36.65 79.74 36.65ZM79.74 34.655C80.36 34.655 80.925 34.5 81.435 34.19C81.955 33.88 82.37 33.47 82.68 32.96C82.99 32.44 83.145 31.87 83.145 31.25C83.145 30.63 82.99 30.065 82.68 29.555C82.37 29.035 81.955 28.62 81.435 28.31C80.925 28 80.36 27.845 79.74 27.845C79.12 27.845 78.55 28 78.03 28.31C77.52 28.62 77.11 29.035 76.8 29.555C76.49 30.065 76.335 30.63 76.335 31.25C76.335 31.87 76.49 32.44 76.8 32.96C77.11 33.47 77.52 33.88 78.03 34.19C78.55 34.5 79.12 34.655 79.74 34.655Z" fill="white"/>
</svg>
