<svg width="66" height="65" viewBox="0 0 66 65" fill="none" xmlns="http://www.w3.org/2000/svg">
<path d="M36.5504 26C37.5272 26.1906 38.4248 26.6683 39.1285 27.3719C39.8322 28.0756 40.3099 28.9733 40.5004 29.95M36.5504 22C38.5797 22.2254 40.472 23.1342 41.9167 24.577C43.3613 26.0198 44.2724 27.911 44.5004 29.94M43.5004 37.92V40.92C43.5016 41.1985 43.4445 41.4742 43.3329 41.7293C43.2214 41.9845 43.0577 42.2136 42.8525 42.4019C42.6473 42.5901 42.405 42.7335 42.1412 42.8227C41.8773 42.9119 41.5978 42.9451 41.3204 42.92C38.2433 42.5856 35.2874 41.5341 32.6904 39.85C30.2743 38.3147 28.2258 36.2662 26.6904 33.85C25.0004 31.2412 23.9487 28.271 23.6204 25.18C23.5954 24.9035 23.6283 24.6248 23.7169 24.3616C23.8055 24.0985 23.948 23.8567 24.1352 23.6516C24.3224 23.4466 24.5502 23.2827 24.8042 23.1705C25.0582 23.0583 25.3328 23.0003 25.6104 23H28.6104C29.0957 22.9952 29.5662 23.1671 29.9342 23.4835C30.3022 23.8 30.5425 24.2394 30.6104 24.72C30.737 25.6801 30.9719 26.6227 31.3104 27.53C31.445 27.8879 31.4741 28.2769 31.3943 28.6509C31.3146 29.0248 31.1293 29.3681 30.8604 29.64L29.5904 30.91C31.014 33.4135 33.0869 35.4864 35.5904 36.91L36.8604 35.64C37.1323 35.3711 37.4756 35.1858 37.8495 35.1061C38.2235 35.0263 38.6125 35.0555 38.9704 35.19C39.8777 35.5285 40.8204 35.7634 41.7804 35.89C42.2662 35.9585 42.7098 36.2032 43.027 36.5775C43.3441 36.9518 43.5126 37.4296 43.5004 37.92Z" stroke="#141414" stroke-width="2" stroke-linecap="round" stroke-linejoin="round"/>
<path d="M1.5 1H64.5V64H1.5V1Z" stroke="#7A9CA5" stroke-width="2"/>
</svg>
