<svg width="65" height="65" viewBox="0 0 65 65" fill="none" xmlns="http://www.w3.org/2000/svg">
<path d="M35.8123 24.75C37.0332 24.9882 38.1553 25.5853 39.0349 26.4649C39.9145 27.3445 40.5116 28.4666 40.7498 29.6875L35.8123 24.75ZM35.8123 19.75C38.3489 20.0318 40.7143 21.1677 42.5201 22.9713C44.3259 24.7748 45.4648 27.1388 45.7498 29.675L35.8123 19.75ZM44.4998 39.65V43.4C44.5012 43.7481 44.4299 44.0927 44.2904 44.4117C44.151 44.7307 43.9464 45.017 43.6899 45.2523C43.4334 45.4877 43.1305 45.6669 42.8007 45.7784C42.4709 45.8899 42.1215 45.9313 41.7748 45.9C37.9283 45.4821 34.2335 44.1677 30.9873 42.0625C27.9671 40.1433 25.4065 37.5827 23.4873 34.5625C21.3748 31.3015 20.0601 27.5887 19.6498 23.725C19.6186 23.3793 19.6596 23.031 19.7704 22.702C19.8812 22.3731 20.0593 22.0709 20.2933 21.8145C20.5272 21.5582 20.8121 21.3534 21.1295 21.2132C21.447 21.0729 21.7902 21.0003 22.1373 21H25.8873C26.4939 20.994 27.082 21.2088 27.542 21.6044C28.002 22 28.3024 22.5493 28.3873 23.15C28.5456 24.3501 28.8391 25.5284 29.2623 26.6625C29.4305 27.1099 29.4669 27.5961 29.3672 28.0636C29.2675 28.5311 29.0359 28.9601 28.6998 29.3L27.1123 30.8875C28.8917 34.0169 31.4829 36.6081 34.6123 38.3875L36.1998 36.8C36.5397 36.4639 36.9687 36.2323 37.4362 36.1326C37.9037 36.0329 38.3899 36.0693 38.8373 36.2375C39.9714 36.6607 41.1497 36.9542 42.3498 37.1125C42.957 37.1982 43.5115 37.504 43.908 37.9719C44.3044 38.4397 44.515 39.037 44.4998 39.65Z" stroke="#7A9CA5" stroke-width="2" stroke-linecap="round" stroke-linejoin="round"/>
<path d="M1 1H64V64H1V1Z" stroke="#7A9CA5" stroke-width="2"/>
</svg>
