<svg width="100" height="101" viewBox="0 0 100 101" fill="none" xmlns="http://www.w3.org/2000/svg">
<path d="M0.5 1H99.5V100H0.5V1Z" fill="#F2FCFF"/>
<path d="M28.168 69.559C27.9721 70.0568 27.4967 70.3596 26.9928 70.3596C26.838 70.3596 26.6801 70.3311 26.5269 70.2692C21.6919 68.3461 18.7587 65.8743 18.0415 63.1235C17.8646 62.4465 18.269 61.7521 18.945 61.5761C19.6211 61.4001 20.3113 61.8044 20.4867 62.483C20.9842 64.3919 23.461 66.3214 27.4604 67.9132C28.108 68.1701 28.4255 68.9073 28.168 69.559ZM32.4628 56.2806C32.7013 56.4836 32.9919 56.5835 33.281 56.5835C33.638 56.5835 33.9934 56.4312 34.2429 56.1379C34.6962 55.6052 34.6315 54.8046 34.1008 54.3495C33.4737 53.8136 32.8608 53.246 32.278 52.661C26.7243 47.0865 23.8164 40.001 24.6977 34.3536C27.0671 33.981 29.6891 34.2822 32.3459 35.1732C32.458 35.2319 32.5812 35.2747 32.7092 35.2985C36.2458 36.5542 39.8282 38.842 42.9367 41.9622C43.7186 42.747 44.4641 43.581 45.1512 44.4372C45.5888 44.9826 46.3849 45.0682 46.9282 44.629C47.4716 44.1898 47.5569 43.3907 47.1194 42.8453C46.3754 41.9178 45.5698 41.0173 44.7232 40.1675C41.5294 36.9617 37.8459 34.5597 34.1418 33.1423C34.0518 30.8481 34.4388 28.7537 35.2586 27.1032C37.3451 27.5582 39.5044 28.8329 41.4456 30.7625C41.1755 31.8453 40.9591 32.9647 40.8028 34.1126C40.708 34.807 41.1913 35.4459 41.8832 35.5411C42.575 35.6362 43.2116 35.1511 43.3063 34.4566C44.1561 28.2416 46.8445 23.0238 50.5628 20.2984C54.281 23.0238 56.9694 28.24 57.8192 34.4534C57.914 35.1479 58.5505 35.633 59.2424 35.5379C59.9342 35.4428 60.4175 34.8022 60.3228 34.1094C60.1664 32.9615 59.95 31.8438 59.6799 30.7625C61.6211 28.8329 63.782 27.5582 65.867 27.1032C66.6852 28.7537 67.0737 30.8481 66.9837 33.1423C63.2797 34.5613 59.5962 36.9632 56.4023 40.1675C55.5557 41.0173 54.7501 41.9178 54.0062 42.8453C53.5686 43.3907 53.6539 44.1898 54.1973 44.629C54.7407 45.0682 55.5367 44.9826 55.9743 44.4372C56.6614 43.581 57.4069 42.7486 58.1888 41.9622C61.2973 38.842 64.8782 36.5526 68.4148 35.2985C68.5443 35.2747 68.6675 35.2319 68.7796 35.1732C71.4364 34.2838 74.0585 33.981 76.4278 34.3536C77.3092 40.0026 74.4012 47.0881 68.8476 52.661C68.2647 53.246 67.6518 53.8136 67.0248 54.3495C66.494 54.803 66.4293 55.6036 66.881 56.1379C67.3328 56.6707 68.1304 56.7357 68.6628 56.2822C69.3404 55.7035 70.0038 55.0884 70.634 54.4557C77.0533 48.014 80.2329 39.5872 78.7387 32.9901C78.6312 32.5144 78.2616 32.1434 77.7862 32.034C75.2321 31.4506 72.4031 31.5758 69.5204 32.3257C69.4936 29.5321 68.8302 26.989 67.6013 25.031C67.3423 24.6188 66.87 24.392 66.3866 24.4475C63.8483 24.7424 61.2231 26.0108 58.8633 28.064C57.2316 23.4867 54.5574 19.7942 51.2341 17.695C50.8234 17.435 50.299 17.435 49.8883 17.695C46.5649 19.7942 43.8908 23.4867 42.2591 28.064C39.8993 26.0108 37.2772 24.7424 34.7357 24.4475C34.2524 24.392 33.7817 24.6188 33.5226 25.031C32.2953 26.989 31.6335 29.5321 31.6067 32.3257C28.7256 31.5758 25.895 31.4506 23.3409 32.034C22.867 32.1418 22.4974 32.5144 22.3884 32.9901C20.8926 39.5872 24.0738 48.0124 30.4931 54.4557C31.1217 55.0868 31.7852 55.7003 32.4628 56.2806ZM31.8641 66.1993C32.0947 65.5382 31.7472 64.8152 31.0886 64.5837C27.2756 63.2456 24.9994 61.5539 24.9994 60.0604C24.9994 59.0948 25.9914 58.004 27.7921 56.9877C28.4002 56.6453 28.6166 55.8716 28.2738 55.2612C27.9326 54.6508 27.1618 54.4336 26.5537 54.7776C23.8448 56.306 22.4722 58.0833 22.4722 60.062C22.4722 62.8017 25.1637 65.1926 30.2546 66.981C30.392 67.0301 30.5326 67.0523 30.6716 67.0523C31.1944 67.0507 31.6825 66.7225 31.8641 66.1993ZM69.7874 64.6725C69.1271 64.8977 68.7733 65.6175 68.9976 66.2818C69.1761 66.8097 69.6673 67.1427 70.1933 67.1427C70.3276 67.1427 70.465 67.1205 70.5993 67.0745C75.8702 65.2782 78.6581 62.8524 78.6581 60.0604C78.6581 58.1531 77.3787 56.4297 74.8561 54.9377C74.2543 54.5826 73.4804 54.7824 73.1265 55.3864C72.7727 55.9905 72.9717 56.7674 73.5735 57.1225C75.2226 58.0976 76.1308 59.1408 76.1308 60.0588C76.1292 61.5713 73.6999 63.3391 69.7874 64.6725ZM63.0964 73.9428C63.0964 75.227 62.0555 76.2734 60.7745 76.2734C60.0764 76.2734 59.5109 76.841 59.5109 77.5418C59.5109 78.2426 60.0764 78.8102 60.7745 78.8102C63.4487 78.8102 65.6237 76.627 65.6237 73.9428C65.6237 73.242 65.0582 72.6744 64.3601 72.6744C63.6619 72.6744 63.0964 73.242 63.0964 73.9428ZM82.0541 61.5761C81.3797 61.4001 80.6878 61.8044 80.5125 62.483C80.0149 64.3935 77.5398 66.3214 73.5404 67.9132C72.8912 68.1717 72.5737 68.9089 72.8312 69.5605C73.027 70.0584 73.5041 70.3612 74.0063 70.3612C74.1611 70.3612 74.3191 70.3327 74.4723 70.2708C79.3073 68.3461 82.2421 65.8743 82.9592 63.1235C83.1345 62.4465 82.7286 61.7537 82.0541 61.5761ZM59.5993 62.1263C59.5993 62.8175 59.0402 63.3788 58.3515 63.3788C57.6533 63.3788 57.0879 63.9464 57.0879 64.6472C57.0879 65.3479 57.6533 65.9155 58.3515 65.9155C60.4333 65.9155 62.1266 64.2159 62.1266 62.1263C62.1266 61.4255 61.5611 60.8579 60.863 60.8579C60.1648 60.8579 59.5993 61.4271 59.5993 62.1263ZM55.9885 54.0261H56.3186C57.0168 54.0261 57.5823 53.4585 57.5823 52.7577C57.5823 52.0569 57.0168 51.4893 56.3186 51.4893H55.9885C55.2903 51.4893 54.7249 52.0569 54.7249 52.7577C54.7249 53.4585 55.2919 54.0261 55.9885 54.0261ZM69.0418 68.568C70.1996 70.1805 70.8125 72.0814 70.8125 74.0649C70.8125 79.2668 66.5967 83.5 61.4126 83.5H39.7176C34.5351 83.5 30.3178 79.2684 30.3178 74.0664C30.3178 70.6149 32.2227 67.4566 35.1796 65.8109C34.7657 64.8723 34.5367 63.8322 34.5367 62.7414C34.5367 59.423 36.6612 56.593 39.6165 55.5497C38.9642 54.6016 38.5803 53.4521 38.5803 52.2139C38.5803 48.9716 41.2087 46.3334 44.4389 46.3334H56.6914C59.9216 46.3334 62.5499 48.9716 62.5499 52.2139C62.5499 55.4562 59.9216 58.0944 56.6914 58.0944H44.4389C43.6523 58.0944 42.902 57.9374 42.2149 57.6552C42.1864 57.6568 42.1564 57.6584 42.128 57.6584C39.3354 57.6584 37.064 59.9383 37.064 62.7414C37.064 63.7894 37.3815 64.7661 37.9264 65.5762C37.9691 65.6286 38.0086 65.6841 38.0433 65.7427C38.9658 67.0032 40.4537 67.8244 42.128 67.8244H59.0023C61.7949 67.8244 64.0663 65.5445 64.0663 62.7414C64.0663 61.2321 63.3966 59.8067 62.2277 58.8317C61.6906 58.3845 61.618 57.5839 62.0634 57.0448C62.5089 56.5058 63.3065 56.4328 63.8436 56.8799C65.5905 58.3386 66.5936 60.4742 66.5936 62.7398C66.5936 66.9413 63.1881 70.3596 59.0023 70.3596H42.128C39.9403 70.3596 37.9659 69.4258 36.5791 67.9338C34.3156 69.1087 32.845 71.4742 32.845 74.0649C32.845 77.8684 35.9283 80.9632 39.7176 80.9632H61.4126C65.202 80.9632 68.2852 77.8684 68.2852 74.0664C68.2852 72.6189 67.8382 71.2316 66.9916 70.0536C66.5841 69.486 66.712 68.6933 67.2775 68.2826C67.843 67.872 68.6327 68.0004 69.0418 68.568ZM41.1076 52.2139C41.1076 54.0578 42.6019 55.5577 44.4389 55.5577H56.6914C58.5284 55.5577 60.0227 54.0578 60.0227 52.2139C60.0227 50.37 58.5284 48.8701 56.6914 48.8701H44.4389C42.6019 48.8701 41.1076 50.37 41.1076 52.2139Z" fill="#5C8692"/>
<path d="M0.5 1H99.5V100H0.5V1Z" stroke="#1E2C30"/>
</svg>
