<svg width="100" height="101" viewBox="0 0 100 101" fill="none" xmlns="http://www.w3.org/2000/svg">
<rect x="0.5" y="1" width="99" height="99" fill="#F2FCFF" stroke="#1E2C30"/>
<path d="M56.3005 58.1064C55.8983 57.655 55.2064 57.617 54.755 58.0192C54.0955 58.6084 52.4418 59.2018 50.2339 59.2018C48.0247 59.2018 46.371 58.607 45.7129 58.0192C45.2614 57.617 44.5696 57.655 44.1674 58.1064C43.7652 58.5564 43.8032 59.2483 44.2546 59.6518C45.4738 60.7417 47.7097 61.3914 50.2339 61.3914C52.7596 61.3914 54.9941 60.7417 56.2133 59.6518C56.6647 59.2483 56.7041 58.5578 56.3005 58.1064Z" fill="#5C8692"/>
<path d="M47.6452 48.4594C47.2374 48.0123 46.5455 47.9813 46.0997 48.3891C45.7833 48.6774 44.9044 48.9882 43.7217 48.9882C42.5391 48.9882 41.6602 48.6774 41.3438 48.3891C40.8966 47.9813 40.2047 48.0137 39.7983 48.4594C39.3905 48.9066 39.4228 49.5985 39.8686 50.0049C40.673 50.739 42.113 51.1763 43.7217 51.1763C45.3305 51.1763 46.7719 50.739 47.5749 50.0049C48.0206 49.5985 48.053 48.9052 47.6452 48.4594Z" fill="#5C8692"/>
<path d="M48.6971 43.3281C47.6719 42.6629 45.8129 42.2664 43.7218 42.2664C41.6307 42.2664 39.7702 42.6629 38.7465 43.3281C38.2402 43.6571 38.0954 44.335 38.4244 44.8412C38.634 45.1632 38.9855 45.339 39.3427 45.339C39.5466 45.339 39.7533 45.2814 39.9376 45.1618C40.4818 44.8089 41.8627 44.4531 43.7218 44.4531C45.5808 44.4531 46.9618 44.8089 47.506 45.1618C48.0137 45.4909 48.6915 45.3475 49.0191 44.8398C49.3482 44.335 49.2048 43.6571 48.6971 43.3281Z" fill="#5C8692"/>
<path d="M60.6696 48.4594C60.2618 48.0123 59.5699 47.9813 59.1241 48.3891C58.8077 48.6774 57.9288 48.9882 56.7462 48.9882C55.5635 48.9882 54.6846 48.6774 54.3682 48.3891C53.9224 47.9813 53.2291 48.0137 52.8227 48.4594C52.4149 48.9066 52.4473 49.5985 52.893 50.0049C53.6974 50.739 55.1374 51.1763 56.7462 51.1763C58.3549 51.1763 59.7949 50.739 60.5993 50.0049C61.0465 49.5985 61.0774 48.9052 60.6696 48.4594Z" fill="#5C8692"/>
<path d="M61.7228 43.3281C60.6976 42.6629 58.8386 42.2664 56.7461 42.2664C54.655 42.2664 52.7945 42.6629 51.7707 43.3281C51.2631 43.6571 51.1197 44.335 51.4487 44.8412C51.7778 45.3475 52.4556 45.4923 52.9633 45.1632C53.5075 44.8103 54.8884 44.4545 56.7475 44.4545C58.6065 44.4545 59.9875 44.8103 60.5317 45.1632C60.7159 45.2828 60.9226 45.3404 61.1265 45.3404C61.4851 45.3404 61.8353 45.1646 62.0448 44.8426C62.3739 44.335 62.229 43.6571 61.7228 43.3281Z" fill="#5C8692"/>
<path d="M71.4402 79.075C69.508 77.4325 66.8727 76.5283 64.0208 76.5283C60.2675 76.5283 57.6716 75.6916 56.5789 75.257V70.2958C62.2053 68.2553 66.5788 63.5838 68.2058 57.7745C71.7284 57.333 74.4664 54.3138 74.4664 50.68C74.4664 47.3205 72.0898 44.4334 68.8948 43.705V41.282C70.1591 36.8509 70.0803 32.4986 69.7864 29.6144C69.6191 27.9663 69.3659 26.6106 69.1831 25.7641C69.013 24.978 68.9033 24.5533 68.8217 24.3072C68.8048 24.2425 68.7837 24.1792 68.7542 24.1173C67.542 21.5481 65.3862 19.3586 62.6272 17.7175C62.5709 17.6767 62.5119 17.643 62.45 17.6134C59.0595 15.6461 54.7831 14.5 50.2339 14.5C46.6522 14.5 43.1492 15.2088 40.1047 16.5489C39.552 16.7922 39.3003 17.4377 39.5436 17.9917C39.7869 18.5444 40.4323 18.7961 40.9864 18.5528C43.7553 17.3336 46.9531 16.6895 50.2339 16.6895C53.8634 16.6895 57.2863 17.47 60.1241 18.8369C58.7938 19.9816 57.2103 21.0841 55.3175 22.1823C54.7944 22.4861 54.6172 23.1555 54.9209 23.6786C55.1234 24.0287 55.4905 24.2242 55.8687 24.2242C56.0558 24.2242 56.2442 24.1764 56.4172 24.0766C58.7094 22.7463 60.5895 21.3991 62.142 19.9745C64.0405 21.2177 65.5522 22.7659 66.5141 24.5392C66.4761 24.5997 66.4367 24.6587 66.3973 24.7192C66.3706 24.7586 66.3439 24.7994 66.3172 24.8387C63.9209 28.3291 58.8359 31.6731 51.4798 34.5967C51.4363 34.6136 51.3913 34.6305 51.3477 34.6488C51.1873 34.712 51.027 34.7753 50.8653 34.8372C43.5486 37.6637 36.0856 39.3245 33.4559 39.8631C32.8583 37.4402 32.6698 35.0495 32.6909 32.9134C33.6008 32.7306 34.5064 32.4691 35.3909 32.2145C36.0842 32.0134 36.8014 31.8067 37.4933 31.6464C37.5045 31.6436 37.5158 31.6408 37.527 31.638C42.0256 30.4469 46.4525 28.8381 51.882 26.4208C52.4347 26.1747 52.6822 25.5278 52.4361 24.9766C52.19 24.4253 51.5431 24.1764 50.9919 24.4225C45.6805 26.7878 41.3591 28.36 36.9842 29.5188C36.2403 29.6917 35.4992 29.9055 34.7834 30.1122C34.0986 30.3105 33.4377 30.5003 32.7908 30.6522C33.0284 27.595 33.6106 25.3984 33.7273 24.978C34.4853 23.4072 35.6834 21.9798 37.2908 20.7311C37.7689 20.3613 37.8547 19.6736 37.4848 19.1955C37.1136 18.7188 36.4273 18.6316 35.9492 19.0014C34.0409 20.4836 32.615 22.2048 31.7108 24.1202C31.6883 24.1694 31.6686 24.2186 31.6531 24.2706C31.5491 24.6152 29.1402 32.7728 31.5702 41.2862V43.7092C28.378 44.4334 26 47.3219 26 50.6814C26 54.3152 28.7394 57.3344 32.2606 57.7759C33.8877 63.5852 38.2625 68.2567 43.8875 70.2972V75.2584C42.792 75.6944 40.1975 76.5311 36.4456 76.5311C33.5937 76.5311 30.9598 77.4353 29.0263 79.0778C27.0758 80.7344 26 82.983 26 85.4059C26 86.0106 26.4894 86.5 27.0941 86.5H73.3737C73.9784 86.5 74.4678 86.0106 74.4678 85.4059C74.4678 82.983 73.392 80.7344 71.4402 79.075ZM68.7148 55.3361C68.833 54.4783 68.8948 53.612 68.8948 52.7472V45.9775C70.8636 46.6441 72.2783 48.5228 72.2783 50.6814C72.2783 52.9328 70.7637 54.8453 68.7008 55.4472C68.7064 55.4106 68.7106 55.3727 68.7148 55.3361ZM28.1881 50.6814C28.1881 48.5228 29.6028 46.6441 31.5716 45.9775V52.7472C31.5716 53.6134 31.6334 54.4783 31.7516 55.3361C31.7572 55.3727 31.76 55.4106 31.7656 55.4472C29.7027 54.8439 28.1881 52.9328 28.1881 50.6814ZM66.9219 27.6048C66.9472 27.5767 66.9725 27.5472 66.9978 27.5191C67.0667 27.4403 67.1342 27.3616 67.2003 27.2828C67.213 27.2673 67.227 27.2519 67.2397 27.2378C67.7361 30.0039 68.2423 34.8681 67.0105 39.8617C64.8322 39.4159 59.3323 38.2038 53.3642 36.1942C59.6178 33.6067 64.1558 30.7323 66.9219 27.6048ZM34.0241 55.6877C34.0227 55.6764 34.0198 55.6638 34.017 55.6525C33.8441 54.6948 33.7611 53.7203 33.7611 52.7472V44.643V42.033C33.7709 42.0316 33.7822 42.0288 33.7934 42.0259C35.488 41.6884 37.1727 41.2933 38.8489 40.8742C40.6152 40.4327 42.3716 39.9545 44.1167 39.4356C45.26 39.0953 46.3991 38.7381 47.5297 38.3598C47.5508 38.3528 47.5705 38.3458 47.5916 38.3388H52.8791C58.9808 40.3792 64.5847 41.6027 66.7081 42.0316V44.6416V52.7458C66.7081 53.7175 66.6223 54.6948 66.4508 55.6525C66.4494 55.6638 66.4466 55.675 66.4452 55.6862C65.3258 61.8794 60.7316 66.8786 54.762 68.5872C54.7522 68.59 54.7423 68.5928 54.7325 68.5956C53.2714 69.0062 51.7527 69.22 50.2339 69.22C48.7194 69.22 47.1894 69.0161 45.7339 68.5956C45.7269 68.5942 45.7213 68.5914 45.7142 68.59C39.7419 66.8828 35.1448 61.8822 34.0241 55.6877ZM28.2922 84.3105C28.5523 82.9591 29.2948 81.7202 30.4437 80.7428C31.9808 79.4364 34.1127 78.7178 36.4456 78.7178C42.0777 78.7178 45.3584 77.0092 45.4948 76.9361C45.852 76.7463 46.0756 76.375 46.0756 75.97C46.0756 75.97 46.0756 70.9427 46.0756 70.9441C46.0784 71.3617 50.0117 71.4095 50.2325 71.4095C51.6303 71.4095 53.0253 71.2548 54.3894 70.9441V75.9714C54.3894 76.3764 54.613 76.7477 54.9702 76.9375C55.1066 77.0106 58.3873 78.7192 64.0194 78.7192C66.3523 78.7192 68.4842 79.4378 70.0213 80.7442C71.1716 81.7216 71.9127 82.9605 72.1728 84.3119H28.2922V84.3105Z" fill="#5C8692"/>
</svg>
