<svg width="100" height="101" viewBox="0 0 100 101" fill="none" xmlns="http://www.w3.org/2000/svg">
<rect x="0.5" y="1" width="99" height="99" fill="#F2FCFF" stroke="#1E2C30"/>
<path d="M30.0885 43.396C30.8965 43.396 31.5515 42.741 31.5515 41.933C31.5515 41.125 30.8965 40.47 30.0885 40.47C29.2805 40.47 28.6255 41.125 28.6255 41.933C28.6255 42.741 29.2805 43.396 30.0885 43.396Z" fill="#5C8692"/>
<path d="M79.57 40.3991C78.6491 39.3409 77.2873 38.7352 75.8345 38.7352H64.0004V36.2299C64.0004 32.5608 61.0151 29.5756 57.3461 29.5756H56.1997V29.3891C56.1997 26.7667 54.1208 24.6228 51.5245 24.5144V22.0192C52.6116 21.7648 53.5556 21.399 54.3493 20.9176C55.8238 20.0228 56.4628 18.9414 56.7389 18.1926C57.3548 16.52 56.7071 14.603 55.2644 13.8296C54.8538 13.6113 54.4187 13.5 53.9691 13.5C52.9904 13.5 52.0709 14.0436 51.5158 14.9326C51.2353 15.1162 50.1627 15.6699 47.429 15.6699H40.6185C37.1591 15.6699 35.0094 18.035 35.0094 21.8443C35.0094 23.7106 36.3539 25.23 38.0077 25.23C39.4808 25.23 40.7096 24.0243 40.9597 22.4413H44.2312V24.5144C41.6348 24.6228 39.556 26.7667 39.556 29.3891V29.5756H38.4081C34.7391 29.5756 31.7538 32.5608 31.7538 36.2299V36.3282H27.466C25.5636 36.3282 24.0153 37.8765 24.0153 39.779V46.3003C22.9759 47.1893 22.3152 48.5078 22.3152 49.9809V52.1306C20.3433 53.5386 19.0003 55.788 18.8283 58.3685C18.7546 59.5005 18.7025 60.7003 18.6751 61.932C18.662 62.5551 19.155 63.0712 19.7781 63.0857C20.3997 63.1001 20.9173 62.6057 20.9303 61.9826C20.9563 60.7842 21.0069 59.619 21.0792 58.5174C21.2295 56.2391 22.6347 54.3149 24.5863 53.4042C24.6008 53.3984 24.6138 53.3912 24.6268 53.3854C25.4074 53.0312 26.2719 52.8404 27.1292 52.8404H33.0448C33.9049 52.8404 34.7651 53.0312 35.5472 53.3854C35.5616 53.3912 35.5747 53.3984 35.5877 53.4042C37.561 54.3193 38.9502 56.3446 39.0948 58.5174C39.209 60.2305 39.2654 61.9913 39.2654 63.7478C39.2654 64.579 39.2423 65.4088 39.2249 66.2386C39.2235 66.2675 39.2235 66.2964 39.222 66.3268C39.2119 66.6203 38.3951 67.4298 38.2245 67.7334C37.9441 68.2322 37.7171 68.7569 37.5494 69.3034C37.1678 70.5437 37.0868 71.8521 37.0637 73.1416C37.0304 75.073 37.2227 77.013 37.6492 78.8981C37.6506 78.9068 37.6521 78.914 37.6549 78.9227C36.9422 80.883 35.1092 82.1797 33.0072 82.1797H27.1668C24.8436 82.1797 22.8082 80.523 22.3239 78.2404C21.5562 74.619 21.0965 70.6478 20.9563 66.4352C20.936 65.8121 20.4113 65.3235 19.7911 65.3452C19.168 65.3654 18.6794 65.8873 18.7011 66.5104C18.8456 70.8546 19.3227 74.9587 20.1164 78.7088C20.8189 82.028 23.7854 84.4379 27.1668 84.4379H33.0101C35.2075 84.4379 37.2025 83.4649 38.5368 81.8617C39.2495 83.7598 40.2094 85.5206 41.3963 87.0762C41.6102 87.3552 41.9413 87.52 42.2926 87.52H63.5855C63.9368 87.52 64.2693 87.3552 64.4818 87.0762C64.8259 86.6266 65.1497 86.1582 65.4547 85.6768H75.1564C75.7795 85.6768 76.2855 85.1722 76.2855 84.5477V75.232L78.9643 55.8806C79.0496 55.2633 78.6188 54.6937 78.0015 54.6084C77.3827 54.5231 76.8146 54.9539 76.7293 55.5712L74.5869 71.0512H68.6886C68.612 70.3096 68.4501 69.5781 68.1884 68.8798C67.3847 66.7374 65.7395 65.0474 63.6766 64.1656L63.6361 63.8692L60.8258 43.5665C60.8156 43.4943 60.8099 43.4205 60.807 43.3483C60.807 43.3439 60.807 43.341 60.807 43.3367C60.7867 42.6066 61.1785 41.9489 61.7481 41.5166C62.2063 41.1697 62.8077 40.9933 63.3788 40.9933H75.8359C76.6353 40.9933 77.377 41.3171 77.8699 41.8824C78.2892 42.3638 78.4742 42.9623 78.3904 43.5651L77.3538 51.055C77.2685 51.6723 77.6993 52.2419 78.3166 52.3272C78.9339 52.4125 79.5035 51.9817 79.5888 51.3644L80.6253 43.873C80.7988 42.6139 80.4244 41.3793 79.57 40.3991ZM40.6171 20.1832C40.0966 20.1832 39.4504 20.2425 39.076 20.6545C38.7825 20.9769 38.7479 21.4294 38.7479 21.8443C38.7479 22.5093 38.3575 22.9733 38.0062 22.9733C37.6549 22.9733 37.2646 22.5093 37.2646 21.8443C37.2646 18.4354 39.3651 17.928 40.6171 17.928H47.4275C48.4799 17.928 49.5728 17.8615 50.6181 17.636C51.5187 17.4408 52.5263 17.1517 53.1884 16.4751C53.4298 16.2279 53.5469 15.7595 53.9676 15.7595C54.0428 15.7595 54.1165 15.7798 54.1931 15.8203C54.5921 16.0342 54.8581 16.7614 54.6167 17.4148C54.423 17.941 53.5831 19.4286 50.2364 19.9779C50.2277 19.9794 50.2205 19.9794 50.2118 19.9808C49.2924 20.1312 48.3585 20.1847 47.4275 20.1847H45.3588L40.6171 20.1832ZM49.2649 22.3661V24.5071H46.4878V22.4399C46.4907 22.489 49.2649 22.3893 49.2649 22.3661ZM44.435 26.7638H45.3588H50.394H51.3177C52.7634 26.7638 53.9401 27.9406 53.9401 29.3862V29.5727H41.8126V29.3862C41.8126 27.9406 42.9894 26.7638 44.435 26.7638ZM26.2734 39.7833C26.2734 39.7818 26.2734 39.779 26.2734 39.7775C26.2734 39.1197 26.8083 38.5849 27.466 38.5849H32.7094C32.7354 38.5849 32.76 38.5877 32.7846 38.5892C32.7903 38.5892 32.7947 38.5906 32.799 38.5906C34.1218 38.6875 33.902 40.2271 33.902 41.1523C33.902 42.2756 33.902 43.3988 33.902 44.5221C33.902 44.7549 33.902 44.9862 33.902 45.2189C33.6115 45.1654 33.3151 45.138 33.0188 45.138C33.0188 45.138 27.1581 45.138 27.1552 45.138C26.882 45.138 26.5625 45.2175 26.2748 45.2088C26.1895 43.4119 26.2734 41.5846 26.2734 39.7833ZM35.6036 50.9842C35.6036 50.656 33.3628 50.5808 33.0448 50.5808H27.1321C26.2661 50.5808 25.3973 50.7182 24.5733 50.9842C24.5733 50.9842 24.5733 49.9794 24.5733 49.978C24.5733 48.5829 25.7616 47.3932 27.1581 47.3932H33.0216C33.8702 47.3932 34.6899 47.8326 35.1641 48.5352C35.6585 49.2682 35.6036 50.1413 35.6036 50.9842ZM67.1953 82.3518C67.2126 82.2954 67.2256 82.252 67.2358 82.2246C67.6275 81.1172 67.9774 79.9896 68.2332 78.8418C68.638 77.0289 68.8361 75.1626 68.8144 73.3049H74.0288V75.151V83.4158C74.0288 83.4158 66.6907 83.4158 66.6879 83.4158C66.8816 83.4172 67.0955 82.6814 67.1953 82.3518ZM65.9838 69.4595H60.6552C60.0321 69.4595 59.5261 69.964 59.5261 70.5886C59.5261 71.2131 60.0307 71.7176 60.6552 71.7176H66.4811C66.4855 71.7653 66.4883 71.8145 66.4927 71.8622C66.844 76.5374 65.7597 81.4121 63.0159 85.2619H42.8636C41.4801 83.3218 40.4783 81.0449 39.8986 78.5873C39.3709 76.348 39.2061 74.0104 39.3969 71.7176H56.1404C56.7635 71.7176 57.2695 71.2131 57.2695 70.5886C57.2695 69.964 56.7649 69.4595 56.1404 69.4595H39.8914C40.1834 68.767 40.6055 68.1324 41.1433 67.5831C42.2694 66.4323 43.8784 65.7471 45.5077 65.7471H60.3704C60.8865 65.7471 61.3953 65.8136 61.8854 65.9423C63.6925 66.4121 65.2436 67.7045 65.9838 69.4595ZM61.7423 39.0026C61.7423 38.9954 60.3964 39.7009 60.2677 39.8021C58.053 41.5672 58.624 44.1462 58.9609 46.5822L61.3086 63.5425C61.3014 63.541 61.2941 63.541 61.2855 63.541C61.1568 63.5266 61.0267 63.5165 60.8966 63.5078C60.8677 63.5063 60.8402 63.5034 60.8113 63.502C60.6653 63.4948 60.5178 63.489 60.3689 63.489H45.5077C44.7921 63.489 44.0779 63.5815 43.3855 63.7622C43.0486 63.8504 42.7162 63.9588 42.3938 64.086C42.2752 64.1338 41.522 64.3954 41.5206 64.4937C41.5235 64.2422 41.5235 63.9935 41.5235 63.7449C41.5235 61.9378 41.4642 60.1279 41.3471 58.3656C41.2618 57.0804 40.8686 55.8126 40.2195 54.7009C39.9246 54.1964 39.5762 53.7222 39.183 53.29C38.9792 53.0659 38.7638 52.8534 38.5368 52.6539C38.4515 52.5787 37.8602 52.1971 37.8602 52.1175V49.9765C37.8602 48.5844 37.2314 47.2038 36.1601 46.293V39.7761C36.1601 39.6951 36.1558 39.6156 36.15 39.5361C36.1486 39.5202 36.1471 39.5028 36.1457 39.4869C36.0358 38.1699 35.1843 37.0611 34.0105 36.5812V36.227C34.0105 33.8027 35.9838 31.8293 38.4081 31.8293H40.6836H55.0677H57.3432C59.7675 31.8293 61.7408 33.8027 61.7408 36.227C61.7423 36.2284 61.7423 39.0026 61.7423 39.0026Z" fill="#5C8692"/>
</svg>
