<svg width="81" height="18" viewBox="0 0 81 18" fill="none" xmlns="http://www.w3.org/2000/svg">
<path d="M79.6292 7.13663L74.7214 6.71813L72.8034 2.24963L70.8853 6.72488L65.9775 7.13663L69.7044 10.3294L68.585 15.0746L72.8034 12.5569L77.0218 15.0746L75.9091 10.3294L79.6292 7.13663ZM72.8034 11.2946V5.01713L73.9706 7.74413L76.9603 8.00063L74.6941 9.94463L75.3767 12.8336L72.8034 11.2946Z" fill="white"/>
<g clip-path="url(#clip0_2902_1648)">
<path d="M8.18522 12.5569L12.4036 15.0746L11.2842 10.3294L15.0111 7.13663L10.1033 6.72488L8.18522 2.24963L6.26716 6.72488L1.35938 7.13663L5.08629 10.3294L3.96685 15.0746L8.18522 12.5569Z" fill="white"/>
</g>
<g clip-path="url(#clip1_2902_1648)">
<path d="M24.5671 12.5569L28.7854 15.0746L27.666 10.3294L31.3929 7.13663L26.4851 6.72488L24.5671 2.24963L22.649 6.72488L17.7412 7.13663L21.4681 10.3294L20.3487 15.0746L24.5671 12.5569Z" fill="white"/>
</g>
<g clip-path="url(#clip2_2902_1648)">
<path d="M40.9494 12.5569L45.1677 15.0746L44.0483 10.3294L47.7752 7.13663L42.8674 6.72488L40.9494 2.24963L39.0313 6.72488L34.1235 7.13663L37.8504 10.3294L36.731 15.0746L40.9494 12.5569Z" fill="white"/>
</g>
<g clip-path="url(#clip3_2902_1648)">
<path d="M56.4211 12.5569L60.6394 15.0746L59.52 10.3294L63.2469 7.13663L58.3391 6.72488L56.4211 2.24963L54.503 6.72488L49.5952 7.13663L53.3221 10.3294L52.2027 15.0746L56.4211 12.5569Z" fill="white"/>
</g>
<defs>
<clipPath id="clip0_2902_1648">
<rect width="16.382" height="16.2" fill="white" transform="translate(-0.00585938 0.900024)"/>
</clipPath>
<clipPath id="clip1_2902_1648">
<rect width="16.382" height="16.2" fill="white" transform="translate(16.376 0.900024)"/>
</clipPath>
<clipPath id="clip2_2902_1648">
<rect width="16.382" height="16.2" fill="white" transform="translate(32.7583 0.900024)"/>
</clipPath>
<clipPath id="clip3_2902_1648">
<rect width="16.382" height="16.2" fill="white" transform="translate(48.23 0.900024)"/>
</clipPath>
</defs>
</svg>
