<svg width="24" height="24" viewBox="0 0 24 24" fill="none" xmlns="http://www.w3.org/2000/svg">
<path d="M14.7443 5.53613C15.721 5.7267 16.6187 6.20439 17.3223 6.90807C18.026 7.61175 18.5037 8.5094 18.6943 9.48613L14.7443 5.53613ZM14.7443 1.53613C16.7735 1.76157 18.6659 2.67031 20.1105 4.11314C21.5552 5.55597 22.4663 7.44714 22.6943 9.47613L14.7443 1.53613ZM21.6943 17.4561V20.4561C21.6954 20.7346 21.6384 21.0103 21.5268 21.2655C21.4152 21.5207 21.2516 21.7497 21.0463 21.938C20.8411 22.1263 20.5988 22.2696 20.335 22.3588C20.0712 22.4481 19.7916 22.4812 19.5143 22.4561C16.4371 22.1218 13.4813 21.0703 10.8843 19.3861C8.4681 17.8508 6.41961 15.8023 4.88427 13.3861C3.19425 10.7773 2.14251 7.80713 1.81427 4.71613C1.78928 4.4396 1.82214 4.16089 1.91077 3.89776C1.99939 3.63462 2.14184 3.39282 2.32904 3.18775C2.51623 2.98269 2.74407 2.81884 2.99806 2.70665C3.25205 2.59447 3.52661 2.53639 3.80427 2.53613H6.80427C7.28958 2.53136 7.76006 2.70321 8.12803 3.01967C8.496 3.33612 8.73635 3.77558 8.80427 4.25613C8.93089 5.2162 9.16572 6.15886 9.50427 7.06613C9.63881 7.42406 9.66793 7.81305 9.58818 8.18701C9.50842 8.56098 9.32313 8.90424 9.05427 9.17613L7.78427 10.4461C9.20783 12.9497 11.2807 15.0226 13.7843 16.4461L15.0543 15.1761C15.3262 14.9073 15.6694 14.722 16.0434 14.6422C16.4174 14.5625 16.8063 14.5916 17.1643 14.7261C18.0715 15.0647 19.0142 15.2995 19.9743 15.4261C20.46 15.4947 20.9037 15.7393 21.2208 16.1136C21.5379 16.4879 21.7064 16.9657 21.6943 17.4561Z" stroke="#7A9CA5" stroke-width="2" stroke-linecap="round" stroke-linejoin="round"/>
</svg>
